# xmcd
#
# Track frame offsets:
#	150
#	18047
#	35735
#	51317
#	66325
#	85810
#	97660
#	115542
#	129652
#	150960
#	171972
#
# Disc length: 2502 seconds
#
# Revision: 0
# Processed by: cddbd v1.5.1PL0 Copyright (c) Steve Scherf et al.
# Submitted via: dBpowerAMP V4.0
#
DISCID=7f09c40b
DTITLE=Mogollon -  4
DYEAR=2004
DGENRE=Country
TTITLE0=Fire on the Mogollon
TTITLE1=Mexico
TTITLE2=Good Love
TTITLE3=He'll Have To Go
TTITLE4=The Best Love I've Ever Had
TTITLE5=Cecilia
TTITLE6=Goodbye
TTITLE7=Cowboy Promise
TTITLE8=If It Wasn't For The Tequila
TTITLE9=Folsom Prison Blues
TTITLE10=Life Goes By
EXTD=
EXTT0=
EXTT1=
EXTT2=
EXTT3=
EXTT4=
EXTT5=
EXTT6=
EXTT7=
EXTT8=
EXTT9=
EXTT10=
PLAYORDER=
